# Blender v2.81 (sub 12) OBJ File: 'nothingtext.blend'
# www.blender.org
mtllib are.mtl
o Text.001
v 0.625000 0.000000 0.050000
v 0.250000 0.000000 0.050000
v 0.250000 0.625000 0.050000
v 0.625000 0.625000 0.050000
v 0.625000 0.500000 0.050000
v 0.375000 0.500000 0.050000
v 0.375000 0.375000 0.050000
v 0.625000 0.375000 0.050000
v 0.625000 0.250000 0.050000
v 0.375000 0.250000 0.050000
v 0.375000 0.125000 0.050000
v 0.625000 0.125000 0.050000
v -0.125000 0.000000 0.050000
v -0.250000 0.000000 0.050000
v -0.250000 0.625000 0.050000
v 0.125000 0.625000 0.050000
v 0.125000 0.375000 0.050000
v 0.000000 0.375000 0.050000
v 0.000000 0.500000 0.050000
v -0.125000 0.500000 0.050000
v -0.125000 0.375000 0.050000
v 0.000000 0.375000 0.050000
v 0.000000 0.250000 0.050000
v -0.125000 0.250000 0.050000
v 0.125000 0.000000 0.050000
v 0.000000 0.000000 0.050000
v 0.000000 0.250000 0.050000
v 0.125000 0.250000 0.050000
v -0.625000 0.250000 0.050000
v -0.625000 0.000000 0.050000
v -0.750000 0.000000 0.050000
v -0.750000 0.625000 0.050000
v -0.375000 0.625000 0.050000
v -0.375000 0.000000 0.050000
v -0.500000 0.000000 0.050000
v -0.500000 0.250000 0.050000
v -0.500000 0.375000 0.050000
v -0.500000 0.500000 0.050000
v -0.625000 0.500000 0.050000
v -0.625000 0.375000 0.050000
v 0.625000 -0.000000 -0.050000
v 0.250000 -0.000000 -0.050000
v 0.250000 0.625000 -0.050000
v 0.625000 0.625000 -0.050000
v 0.625000 0.500000 -0.050000
v 0.375000 0.500000 -0.050000
v 0.375000 0.375000 -0.050000
v 0.625000 0.375000 -0.050000
v 0.625000 0.250000 -0.050000
v 0.375000 0.250000 -0.050000
v 0.375000 0.125000 -0.050000
v 0.625000 0.125000 -0.050000
v -0.125000 -0.000000 -0.050000
v -0.250000 -0.000000 -0.050000
v -0.250000 0.625000 -0.050000
v 0.125000 0.625000 -0.050000
v 0.125000 0.375000 -0.050000
v 0.000000 0.375000 -0.050000
v 0.000000 0.500000 -0.050000
v -0.125000 0.500000 -0.050000
v -0.125000 0.375000 -0.050000
v 0.000000 0.375000 -0.050000
v 0.000000 0.250000 -0.050000
v -0.125000 0.250000 -0.050000
v 0.125000 -0.000000 -0.050000
v 0.000000 -0.000000 -0.050000
v 0.000000 0.250000 -0.050000
v 0.125000 0.250000 -0.050000
v -0.625000 0.250000 -0.050000
v -0.625000 -0.000000 -0.050000
v -0.750000 -0.000000 -0.050000
v -0.750000 0.625000 -0.050000
v -0.375000 0.625000 -0.050000
v -0.375000 -0.000000 -0.050000
v -0.500000 -0.000000 -0.050000
v -0.500000 0.250000 -0.050000
v -0.500000 0.375000 -0.050000
v -0.500000 0.500000 -0.050000
v -0.625000 0.500000 -0.050000
v -0.625000 0.375000 -0.050000
v -0.625000 0.250000 -0.050000
v -0.625000 0.250000 0.050000
v -0.625000 -0.000000 -0.050000
v -0.625000 0.000000 0.050000
v -0.750000 -0.000000 -0.050000
v -0.750000 0.000000 0.050000
v -0.750000 0.625000 -0.050000
v -0.750000 0.625000 0.050000
v -0.375000 0.625000 -0.050000
v -0.375000 0.625000 0.050000
v -0.375000 -0.000000 -0.050000
v -0.375000 0.000000 0.050000
v -0.500000 -0.000000 -0.050000
v -0.500000 0.000000 0.050000
v -0.500000 0.250000 -0.050000
v -0.500000 0.250000 0.050000
v -0.500000 0.375000 -0.050000
v -0.500000 0.375000 0.050000
v -0.500000 0.500000 -0.050000
v -0.500000 0.500000 0.050000
v -0.625000 0.500000 -0.050000
v -0.625000 0.500000 0.050000
v -0.625000 0.375000 -0.050000
v -0.625000 0.375000 0.050000
v -0.125000 -0.000000 -0.050000
v -0.125000 0.000000 0.050000
v -0.250000 -0.000000 -0.050000
v -0.250000 0.000000 0.050000
v -0.250000 0.625000 -0.050000
v -0.250000 0.625000 0.050000
v 0.125000 0.625000 -0.050000
v 0.125000 0.625000 0.050000
v 0.125000 0.375000 -0.050000
v 0.125000 0.375000 0.050000
v 0.000000 0.375000 -0.050000
v 0.000000 0.375000 0.050000
v 0.000000 0.500000 -0.050000
v 0.000000 0.500000 0.050000
v -0.125000 0.500000 -0.050000
v -0.125000 0.500000 0.050000
v -0.125000 0.375000 -0.050000
v -0.125000 0.375000 0.050000
v 0.000000 0.375000 -0.050000
v 0.000000 0.375000 0.050000
v 0.000000 0.250000 -0.050000
v 0.000000 0.250000 0.050000
v -0.125000 0.250000 -0.050000
v -0.125000 0.250000 0.050000
v 0.125000 -0.000000 -0.050000
v 0.125000 0.000000 0.050000
v 0.000000 -0.000000 -0.050000
v 0.000000 0.000000 0.050000
v 0.000000 0.250000 -0.050000
v 0.000000 0.250000 0.050000
v 0.125000 0.250000 -0.050000
v 0.125000 0.250000 0.050000
v 0.625000 -0.000000 -0.050000
v 0.625000 0.000000 0.050000
v 0.250000 -0.000000 -0.050000
v 0.250000 0.000000 0.050000
v 0.250000 0.625000 -0.050000
v 0.250000 0.625000 0.050000
v 0.625000 0.625000 -0.050000
v 0.625000 0.625000 0.050000
v 0.625000 0.500000 -0.050000
v 0.625000 0.500000 0.050000
v 0.375000 0.500000 -0.050000
v 0.375000 0.500000 0.050000
v 0.375000 0.375000 -0.050000
v 0.375000 0.375000 0.050000
v 0.625000 0.375000 -0.050000
v 0.625000 0.375000 0.050000
v 0.625000 0.250000 -0.050000
v 0.625000 0.250000 0.050000
v 0.375000 0.250000 -0.050000
v 0.375000 0.250000 0.050000
v 0.375000 0.125000 -0.050000
v 0.375000 0.125000 0.050000
v 0.625000 0.125000 -0.050000
v 0.625000 0.125000 0.050000
vn -0.0000 0.0000 1.0000
vn 0.0000 -0.0000 -1.0000
vn 0.7071 -0.7071 0.0000
vn -0.7071 -0.7071 0.0000
vn -0.7071 0.7071 0.0000
vn 0.7071 0.7071 0.0000
usemtl Material.001
s off
f 2//1 6//1 3//1
f 6//1 4//1 3//1
f 6//1 5//1 4//1
f 2//1 7//1 6//1
f 2//1 10//1 7//1
f 10//1 8//1 7//1
f 10//1 9//1 8//1
f 2//1 11//1 10//1
f 2//1 12//1 11//1
f 2//1 1//1 12//1
f 14//1 20//1 15//1
f 20//1 16//1 15//1
f 20//1 19//1 16//1
f 19//1 17//1 16//1
f 14//1 21//1 20//1
f 18//1 17//1 19//1
f 14//1 24//1 21//1
f 24//1 22//1 21//1
f 24//1 23//1 22//1
f 14//1 13//1 24//1
f 26//1 28//1 27//1
f 26//1 25//1 28//1
f 31//1 39//1 32//1
f 39//1 33//1 32//1
f 39//1 38//1 33//1
f 38//1 34//1 33//1
f 31//1 40//1 39//1
f 37//1 34//1 38//1
f 31//1 29//1 40//1
f 29//1 37//1 40//1
f 29//1 36//1 37//1
f 36//1 34//1 37//1
f 31//1 30//1 29//1
f 35//1 34//1 36//1
f 46//2 42//2 43//2
f 44//2 46//2 43//2
f 45//2 46//2 44//2
f 47//2 42//2 46//2
f 50//2 42//2 47//2
f 48//2 50//2 47//2
f 49//2 50//2 48//2
f 51//2 42//2 50//2
f 52//2 42//2 51//2
f 41//2 42//2 52//2
f 60//2 54//2 55//2
f 56//2 60//2 55//2
f 59//2 60//2 56//2
f 57//2 59//2 56//2
f 61//2 54//2 60//2
f 57//2 58//2 59//2
f 64//2 54//2 61//2
f 62//2 64//2 61//2
f 63//2 64//2 62//2
f 53//2 54//2 64//2
f 68//2 66//2 67//2
f 65//2 66//2 68//2
f 79//2 71//2 72//2
f 73//2 79//2 72//2
f 78//2 79//2 73//2
f 74//2 78//2 73//2
f 80//2 71//2 79//2
f 74//2 77//2 78//2
f 69//2 71//2 80//2
f 77//2 69//2 80//2
f 76//2 69//2 77//2
f 74//2 76//2 77//2
f 70//2 71//2 69//2
f 74//2 75//2 76//2
s 1
f 82//3 84//3 83//3 81//3
f 84//3 86//4 85//4 83//3
f 86//4 88//5 87//5 85//4
f 88//5 90//6 89//6 87//5
f 90//6 92//3 91//3 89//6
f 92//3 94//4 93//4 91//3
f 94//4 96//4 95//4 93//4
f 96//4 82//3 81//3 95//4
f 98//5 100//4 99//4 97//5
f 100//4 102//3 101//3 99//4
f 102//3 104//6 103//6 101//3
f 104//6 98//5 97//5 103//6
f 106//3 108//4 107//4 105//3
f 108//4 110//5 109//5 107//4
f 110//5 112//6 111//6 109//5
f 112//6 114//3 113//3 111//6
f 114//3 116//4 115//4 113//3
f 116//4 118//4 117//4 115//4
f 118//4 120//3 119//3 117//4
f 120//3 122//6 121//6 119//3
f 122//6 124//6 123//6 121//6
f 124//6 126//3 125//3 123//6
f 126//3 128//3 127//3 125//3
f 128//3 106//3 105//3 127//3
f 130//3 132//4 131//4 129//3
f 132//4 134//5 133//5 131//4
f 134//5 136//6 135//6 133//5
f 136//6 130//3 129//3 135//6
f 138//3 140//4 139//4 137//3
f 140//4 142//5 141//5 139//4
f 142//5 144//6 143//6 141//5
f 144//6 146//3 145//3 143//6
f 146//3 148//3 147//3 145//3
f 148//3 150//6 149//6 147//3
f 150//6 152//6 151//6 149//6
f 152//6 154//3 153//3 151//6
f 154//3 156//3 155//3 153//3
f 156//3 158//6 157//6 155//3
f 158//6 160//6 159//6 157//6
f 160//6 138//3 137//3 159//6
