# Blender v2.81 (sub 12) OBJ File: 'nothingtext.blend'
# www.blender.org
mtllib beautiful.mtl
o Text.001
v 1.751250 0.125000 0.050000
v 2.001250 0.125000 0.050000
v 2.001250 0.000000 0.050000
v 1.626250 0.000000 0.050000
v 1.626250 0.498750 0.050000
v 1.751250 0.498750 0.050000
v 1.626250 0.625000 0.050000
v 1.751250 0.625000 0.050000
v 1.751250 0.498750 0.050000
v 1.626250 0.498750 0.050000
v 1.376250 0.625000 0.050000
v 1.501250 0.625000 0.050000
v 1.501250 0.000000 0.050000
v 1.126250 0.000000 0.050000
v 1.126250 0.625000 0.050000
v 1.251250 0.625000 0.050000
v 1.251250 0.125000 0.050000
v 1.376250 0.125000 0.050000
v 0.751250 0.000000 0.050000
v 0.626250 0.000000 0.050000
v 0.626250 0.622500 0.050000
v 1.002500 0.622500 0.050000
v 1.002500 0.497500 0.050000
v 0.751250 0.497500 0.050000
v 0.751250 0.373750 0.050000
v 0.877500 0.373750 0.050000
v 0.877500 0.248750 0.050000
v 0.751250 0.248750 0.050000
v 0.500000 0.623750 0.050000
v 0.500000 -0.001250 0.050000
v 0.375000 -0.001250 0.050000
v 0.375000 0.623750 0.050000
v 0.248750 0.625000 0.050000
v 0.248750 0.500000 0.050000
v 0.123750 0.500000 0.050000
v 0.123750 0.000000 0.050000
v -0.001250 0.000000 0.050000
v -0.001250 0.500000 0.050000
v -0.126250 0.500000 0.050000
v -0.126250 0.625000 0.050000
v -0.376250 0.625000 0.050000
v -0.251250 0.625000 0.050000
v -0.251250 0.000000 0.050000
v -0.626250 0.000000 0.050000
v -0.626250 0.625000 0.050000
v -0.501250 0.625000 0.050000
v -0.501250 0.125000 0.050000
v -0.376250 0.125000 0.050000
v -1.001250 0.250000 0.050000
v -1.001250 0.000000 0.050000
v -1.126250 0.000000 0.050000
v -1.126250 0.625000 0.050000
v -0.751250 0.625000 0.050000
v -0.751250 0.000000 0.050000
v -0.876250 0.000000 0.050000
v -0.876250 0.250000 0.050000
v -0.876250 0.375000 0.050000
v -0.876250 0.500000 0.050000
v -1.001250 0.500000 0.050000
v -1.001250 0.375000 0.050000
v -1.251250 0.000000 0.050000
v -1.626250 0.000000 0.050000
v -1.626250 0.625000 0.050000
v -1.251250 0.625000 0.050000
v -1.251250 0.500000 0.050000
v -1.501250 0.500000 0.050000
v -1.501250 0.375000 0.050000
v -1.251250 0.375000 0.050000
v -1.251250 0.250000 0.050000
v -1.501250 0.250000 0.050000
v -1.501250 0.125000 0.050000
v -1.251250 0.125000 0.050000
v -2.001250 0.500000 0.050000
v -2.001250 0.375000 0.050000
v -1.876250 0.375000 0.050000
v -1.876250 0.250000 0.050000
v -1.751250 0.250000 0.050000
v -1.751250 0.000000 0.050000
v -2.126250 0.000000 0.050000
v -2.126250 0.625000 0.050000
v -1.751250 0.625000 0.050000
v -1.751250 0.375000 0.050000
v -1.876250 0.375000 0.050000
v -1.876250 0.500000 0.050000
v -2.001250 0.250000 0.050000
v -2.001250 0.125000 0.050000
v -1.876250 0.125000 0.050000
v -1.876250 0.250000 0.050000
v 1.751250 0.125000 -0.050000
v 2.001250 0.125000 -0.050000
v 2.001250 -0.000000 -0.050000
v 1.626250 -0.000000 -0.050000
v 1.626250 0.498750 -0.050000
v 1.751250 0.498750 -0.050000
v 1.626250 0.625000 -0.050000
v 1.751250 0.625000 -0.050000
v 1.751250 0.498750 -0.050000
v 1.626250 0.498750 -0.050000
v 1.376250 0.625000 -0.050000
v 1.501250 0.625000 -0.050000
v 1.501250 -0.000000 -0.050000
v 1.126250 -0.000000 -0.050000
v 1.126250 0.625000 -0.050000
v 1.251250 0.625000 -0.050000
v 1.251250 0.125000 -0.050000
v 1.376250 0.125000 -0.050000
v 0.751250 -0.000000 -0.050000
v 0.626250 -0.000000 -0.050000
v 0.626250 0.622500 -0.050000
v 1.002500 0.622500 -0.050000
v 1.002500 0.497500 -0.050000
v 0.751250 0.497500 -0.050000
v 0.751250 0.373750 -0.050000
v 0.877500 0.373750 -0.050000
v 0.877500 0.248750 -0.050000
v 0.751250 0.248750 -0.050000
v 0.500000 0.623750 -0.050000
v 0.500000 -0.001250 -0.050000
v 0.375000 -0.001250 -0.050000
v 0.375000 0.623750 -0.050000
v 0.248750 0.625000 -0.050000
v 0.248750 0.500000 -0.050000
v 0.123750 0.500000 -0.050000
v 0.123750 -0.000000 -0.050000
v -0.001250 -0.000000 -0.050000
v -0.001250 0.500000 -0.050000
v -0.126250 0.500000 -0.050000
v -0.126250 0.625000 -0.050000
v -0.376250 0.625000 -0.050000
v -0.251250 0.625000 -0.050000
v -0.251250 -0.000000 -0.050000
v -0.626250 -0.000000 -0.050000
v -0.626250 0.625000 -0.050000
v -0.501250 0.625000 -0.050000
v -0.501250 0.125000 -0.050000
v -0.376250 0.125000 -0.050000
v -1.001250 0.250000 -0.050000
v -1.001250 -0.000000 -0.050000
v -1.126250 -0.000000 -0.050000
v -1.126250 0.625000 -0.050000
v -0.751250 0.625000 -0.050000
v -0.751250 -0.000000 -0.050000
v -0.876250 -0.000000 -0.050000
v -0.876250 0.250000 -0.050000
v -0.876250 0.375000 -0.050000
v -0.876250 0.500000 -0.050000
v -1.001250 0.500000 -0.050000
v -1.001250 0.375000 -0.050000
v -1.251250 -0.000000 -0.050000
v -1.626250 -0.000000 -0.050000
v -1.626250 0.625000 -0.050000
v -1.251250 0.625000 -0.050000
v -1.251250 0.500000 -0.050000
v -1.501250 0.500000 -0.050000
v -1.501250 0.375000 -0.050000
v -1.251250 0.375000 -0.050000
v -1.251250 0.250000 -0.050000
v -1.501250 0.250000 -0.050000
v -1.501250 0.125000 -0.050000
v -1.251250 0.125000 -0.050000
v -2.001250 0.500000 -0.050000
v -2.001250 0.375000 -0.050000
v -1.876250 0.375000 -0.050000
v -1.876250 0.250000 -0.050000
v -1.751250 0.250000 -0.050000
v -1.751250 -0.000000 -0.050000
v -2.126250 -0.000000 -0.050000
v -2.126250 0.625000 -0.050000
v -1.751250 0.625000 -0.050000
v -1.751250 0.375000 -0.050000
v -1.876250 0.375000 -0.050000
v -1.876250 0.500000 -0.050000
v -2.001250 0.250000 -0.050000
v -2.001250 0.125000 -0.050000
v -1.876250 0.125000 -0.050000
v -1.876250 0.250000 -0.050000
v -2.001250 0.500000 -0.050000
v -2.001250 0.500000 0.050000
v -2.001250 0.375000 -0.050000
v -2.001250 0.375000 0.050000
v -1.876250 0.375000 -0.050000
v -1.876250 0.375000 0.050000
v -1.876250 0.250000 -0.050000
v -1.876250 0.250000 0.050000
v -1.751250 0.250000 -0.050000
v -1.751250 0.250000 0.050000
v -1.751250 -0.000000 -0.050000
v -1.751250 0.000000 0.050000
v -2.126250 -0.000000 -0.050000
v -2.126250 0.000000 0.050000
v -2.126250 0.625000 -0.050000
v -2.126250 0.625000 0.050000
v -1.751250 0.625000 -0.050000
v -1.751250 0.625000 0.050000
v -1.751250 0.375000 -0.050000
v -1.751250 0.375000 0.050000
v -1.876250 0.375000 -0.050000
v -1.876250 0.375000 0.050000
v -1.876250 0.500000 -0.050000
v -1.876250 0.500000 0.050000
v -2.001250 0.250000 -0.050000
v -2.001250 0.250000 0.050000
v -2.001250 0.125000 -0.050000
v -2.001250 0.125000 0.050000
v -1.876250 0.125000 -0.050000
v -1.876250 0.125000 0.050000
v -1.876250 0.250000 -0.050000
v -1.876250 0.250000 0.050000
v -1.251250 -0.000000 -0.050000
v -1.251250 0.000000 0.050000
v -1.626250 -0.000000 -0.050000
v -1.626250 0.000000 0.050000
v -1.626250 0.625000 -0.050000
v -1.626250 0.625000 0.050000
v -1.251250 0.625000 -0.050000
v -1.251250 0.625000 0.050000
v -1.251250 0.500000 -0.050000
v -1.251250 0.500000 0.050000
v -1.501250 0.500000 -0.050000
v -1.501250 0.500000 0.050000
v -1.501250 0.375000 -0.050000
v -1.501250 0.375000 0.050000
v -1.251250 0.375000 -0.050000
v -1.251250 0.375000 0.050000
v -1.251250 0.250000 -0.050000
v -1.251250 0.250000 0.050000
v -1.501250 0.250000 -0.050000
v -1.501250 0.250000 0.050000
v -1.501250 0.125000 -0.050000
v -1.501250 0.125000 0.050000
v -1.251250 0.125000 -0.050000
v -1.251250 0.125000 0.050000
v -1.001250 0.250000 -0.050000
v -1.001250 0.250000 0.050000
v -1.001250 -0.000000 -0.050000
v -1.001250 0.000000 0.050000
v -1.126250 -0.000000 -0.050000
v -1.126250 0.000000 0.050000
v -1.126250 0.625000 -0.050000
v -1.126250 0.625000 0.050000
v -0.751250 0.625000 -0.050000
v -0.751250 0.625000 0.050000
v -0.751250 -0.000000 -0.050000
v -0.751250 0.000000 0.050000
v -0.876250 -0.000000 -0.050000
v -0.876250 0.000000 0.050000
v -0.876250 0.250000 -0.050000
v -0.876250 0.250000 0.050000
v -0.876250 0.375000 -0.050000
v -0.876250 0.375000 0.050000
v -0.876250 0.500000 -0.050000
v -0.876250 0.500000 0.050000
v -1.001250 0.500000 -0.050000
v -1.001250 0.500000 0.050000
v -1.001250 0.375000 -0.050000
v -1.001250 0.375000 0.050000
v -0.376250 0.625000 -0.050000
v -0.376250 0.625000 0.050000
v -0.251250 0.625000 -0.050000
v -0.251250 0.625000 0.050000
v -0.251250 -0.000000 -0.050000
v -0.251250 0.000000 0.050000
v -0.626250 -0.000000 -0.050000
v -0.626250 0.000000 0.050000
v -0.626250 0.625000 -0.050000
v -0.626250 0.625000 0.050000
v -0.501250 0.625000 -0.050000
v -0.501250 0.625000 0.050000
v -0.501250 0.125000 -0.050000
v -0.501250 0.125000 0.050000
v -0.376250 0.125000 -0.050000
v -0.376250 0.125000 0.050000
v 0.248750 0.625000 -0.050000
v 0.248750 0.625000 0.050000
v 0.248750 0.500000 -0.050000
v 0.248750 0.500000 0.050000
v 0.123750 0.500000 -0.050000
v 0.123750 0.500000 0.050000
v 0.123750 -0.000000 -0.050000
v 0.123750 0.000000 0.050000
v -0.001250 -0.000000 -0.050000
v -0.001250 0.000000 0.050000
v -0.001250 0.500000 -0.050000
v -0.001250 0.500000 0.050000
v -0.126250 0.500000 -0.050000
v -0.126250 0.500000 0.050000
v -0.126250 0.625000 -0.050000
v -0.126250 0.625000 0.050000
v 0.500000 0.623750 -0.050000
v 0.500000 0.623750 0.050000
v 0.500000 -0.001250 -0.050000
v 0.500000 -0.001250 0.050000
v 0.375000 -0.001250 -0.050000
v 0.375000 -0.001250 0.050000
v 0.375000 0.623750 -0.050000
v 0.375000 0.623750 0.050000
v 0.751250 -0.000000 -0.050000
v 0.751250 0.000000 0.050000
v 0.626250 -0.000000 -0.050000
v 0.626250 0.000000 0.050000
v 0.626250 0.622500 -0.050000
v 0.626250 0.622500 0.050000
v 1.002500 0.622500 -0.050000
v 1.002500 0.622500 0.050000
v 1.002500 0.497500 -0.050000
v 1.002500 0.497500 0.050000
v 0.751250 0.497500 -0.050000
v 0.751250 0.497500 0.050000
v 0.751250 0.373750 -0.050000
v 0.751250 0.373750 0.050000
v 0.877500 0.373750 -0.050000
v 0.877500 0.373750 0.050000
v 0.877500 0.248750 -0.050000
v 0.877500 0.248750 0.050000
v 0.751250 0.248750 -0.050000
v 0.751250 0.248750 0.050000
v 1.376250 0.625000 -0.050000
v 1.376250 0.625000 0.050000
v 1.501250 0.625000 -0.050000
v 1.501250 0.625000 0.050000
v 1.501250 -0.000000 -0.050000
v 1.501250 0.000000 0.050000
v 1.126250 -0.000000 -0.050000
v 1.126250 0.000000 0.050000
v 1.126250 0.625000 -0.050000
v 1.126250 0.625000 0.050000
v 1.251250 0.625000 -0.050000
v 1.251250 0.625000 0.050000
v 1.251250 0.125000 -0.050000
v 1.251250 0.125000 0.050000
v 1.376250 0.125000 -0.050000
v 1.376250 0.125000 0.050000
v 1.751250 0.125000 -0.050000
v 1.751250 0.125000 0.050000
v 2.001250 0.125000 -0.050000
v 2.001250 0.125000 0.050000
v 2.001250 -0.000000 -0.050000
v 2.001250 0.000000 0.050000
v 1.626250 -0.000000 -0.050000
v 1.626250 0.000000 0.050000
v 1.626250 0.498750 -0.050000
v 1.626250 0.498750 0.050000
v 1.751250 0.498750 -0.050000
v 1.751250 0.498750 0.050000
v 1.626250 0.625000 -0.050000
v 1.626250 0.625000 0.050000
v 1.751250 0.625000 -0.050000
v 1.751250 0.625000 0.050000
v 1.751250 0.498750 -0.050000
v 1.751250 0.498750 0.050000
v 1.626250 0.498750 -0.050000
v 1.626250 0.498750 0.050000
vn 0.0000 0.0000 1.0000
vn 0.0000 -0.0000 -1.0000
vn 0.7071 -0.7071 0.0000
vn 0.7071 0.7071 0.0000
vn -0.7071 -0.7071 0.0000
vn -0.7071 0.7071 0.0000
usemtl Material.001
s off
f 10//1 8//1 7//1
f 10//1 9//1 8//1
f 4//1 6//1 5//1
f 4//1 1//1 6//1
f 4//1 2//1 1//1
f 4//1 3//1 2//1
f 14//1 16//1 15//1
f 14//1 17//1 16//1
f 18//1 12//1 11//1
f 18//1 13//1 12//1
f 14//1 18//1 17//1
f 14//1 13//1 18//1
f 20//1 24//1 21//1
f 24//1 22//1 21//1
f 24//1 23//1 22//1
f 20//1 25//1 24//1
f 20//1 28//1 25//1
f 28//1 26//1 25//1
f 28//1 27//1 26//1
f 20//1 19//1 28//1
f 31//1 29//1 32//1
f 31//1 30//1 29//1
f 39//1 33//1 40//1
f 39//1 34//1 33//1
f 38//1 34//1 39//1
f 37//1 35//1 38//1
f 35//1 34//1 38//1
f 37//1 36//1 35//1
f 44//1 46//1 45//1
f 44//1 47//1 46//1
f 48//1 42//1 41//1
f 48//1 43//1 42//1
f 44//1 48//1 47//1
f 44//1 43//1 48//1
f 51//1 59//1 52//1
f 59//1 53//1 52//1
f 59//1 58//1 53//1
f 58//1 54//1 53//1
f 51//1 60//1 59//1
f 57//1 54//1 58//1
f 51//1 49//1 60//1
f 49//1 57//1 60//1
f 49//1 56//1 57//1
f 56//1 54//1 57//1
f 51//1 50//1 49//1
f 55//1 54//1 56//1
f 62//1 66//1 63//1
f 66//1 64//1 63//1
f 66//1 65//1 64//1
f 62//1 67//1 66//1
f 62//1 70//1 67//1
f 70//1 68//1 67//1
f 70//1 69//1 68//1
f 62//1 71//1 70//1
f 62//1 72//1 71//1
f 62//1 61//1 72//1
f 79//1 73//1 80//1
f 73//1 81//1 80//1
f 73//1 84//1 81//1
f 84//1 82//1 81//1
f 79//1 74//1 73//1
f 83//1 82//1 84//1
f 79//1 85//1 74//1
f 85//1 75//1 74//1
f 85//1 76//1 75//1
f 79//1 86//1 85//1
f 88//1 76//1 85//1
f 87//1 76//1 88//1
f 87//1 77//1 76//1
f 87//1 78//1 77//1
f 79//1 87//1 86//1
f 79//1 78//1 87//1
f 96//2 98//2 95//2
f 97//2 98//2 96//2
f 94//2 92//2 93//2
f 89//2 92//2 94//2
f 90//2 92//2 89//2
f 91//2 92//2 90//2
f 104//2 102//2 103//2
f 105//2 102//2 104//2
f 100//2 106//2 99//2
f 101//2 106//2 100//2
f 106//2 102//2 105//2
f 101//2 102//2 106//2
f 112//2 108//2 109//2
f 110//2 112//2 109//2
f 111//2 112//2 110//2
f 113//2 108//2 112//2
f 116//2 108//2 113//2
f 114//2 116//2 113//2
f 115//2 116//2 114//2
f 107//2 108//2 116//2
f 117//2 119//2 120//2
f 118//2 119//2 117//2
f 121//2 127//2 128//2
f 122//2 127//2 121//2
f 122//1 126//1 127//1
f 123//2 125//2 126//2
f 122//1 123//1 126//1
f 124//2 125//2 123//2
f 134//2 132//2 133//2
f 135//2 132//2 134//2
f 130//2 136//2 129//2
f 131//2 136//2 130//2
f 136//2 132//2 135//2
f 131//2 132//2 136//2
f 147//2 139//2 140//2
f 141//2 147//2 140//2
f 146//2 147//2 141//2
f 142//2 146//2 141//2
f 148//2 139//2 147//2
f 142//2 145//2 146//2
f 137//2 139//2 148//2
f 145//2 137//2 148//2
f 144//2 137//2 145//2
f 142//2 144//2 145//2
f 138//2 139//2 137//2
f 142//2 143//2 144//2
f 154//2 150//2 151//2
f 152//2 154//2 151//2
f 153//2 154//2 152//2
f 155//2 150//2 154//2
f 158//2 150//2 155//2
f 156//2 158//2 155//2
f 157//2 158//2 156//2
f 159//2 150//2 158//2
f 160//2 150//2 159//2
f 149//2 150//2 160//2
f 161//2 167//2 168//2
f 169//2 161//2 168//2
f 172//2 161//2 169//2
f 170//2 172//2 169//2
f 162//2 167//2 161//2
f 170//2 171//2 172//2
f 173//2 167//2 162//2
f 163//2 173//2 162//2
f 164//2 173//2 163//2
f 174//2 167//2 173//2
f 164//1 176//1 173//1
f 164//1 175//1 176//1
f 165//2 175//2 164//2
f 166//2 175//2 165//2
f 175//2 167//2 174//2
f 166//2 167//2 175//2
s 1
f 178//3 180//4 179//4 177//3
f 180//4 182//4 181//4 179//4
f 182//4 184//4 183//4 181//4
f 184//4 186//4 185//4 183//4
f 186//4 188//3 187//3 185//4
f 188//3 190//5 189//5 187//3
f 190//5 192//6 191//6 189//5
f 192//6 194//4 193//4 191//6
f 194//4 196//3 195//3 193//4
f 196//3 198//5 197//5 195//3
f 198//5 200//5 199//5 197//5
f 200//5 178//3 177//3 199//5
f 202//3 204//4 203//4 201//3
f 204//4 206//6 205//6 203//4
f 206//6 208//5 207//5 205//6
f 208//5 202//3 201//3 207//5
f 210//3 212//5 211//5 209//3
f 212//5 214//6 213//6 211//5
f 214//6 216//4 215//4 213//6
f 216//4 218//3 217//3 215//4
f 218//3 220//3 219//3 217//3
f 220//3 222//4 221//4 219//3
f 222//4 224//4 223//4 221//4
f 224//4 226//3 225//3 223//4
f 226//3 228//3 227//3 225//3
f 228//3 230//4 229//4 227//3
f 230//4 232//4 231//4 229//4
f 232//4 210//3 209//3 231//4
f 234//3 236//3 235//3 233//3
f 236//3 238//5 237//5 235//3
f 238//5 240//6 239//6 237//5
f 240//6 242//4 241//4 239//6
f 242//4 244//3 243//3 241//4
f 244//3 246//5 245//5 243//3
f 246//5 248//5 247//5 245//5
f 248//5 234//3 233//3 247//5
f 250//6 252//5 251//5 249//6
f 252//5 254//3 253//3 251//5
f 254//3 256//4 255//4 253//3
f 256//4 250//6 249//6 255//4
f 258//6 260//4 259//4 257//6
f 260//4 262//3 261//3 259//4
f 262//3 264//5 263//5 261//3
f 264//5 266//6 265//6 263//5
f 266//6 268//4 267//4 265//6
f 268//4 270//4 269//4 267//4
f 270//4 272//6 271//6 269//4
f 272//6 258//6 257//6 271//6
f 274//4 276//3 275//3 273//4
f 276//3 278//3 277//3 275//3
f 278//3 280//3 279//3 277//3
f 280//3 282//5 281//5 279//3
f 282//5 284//5 283//5 281//5
f 284//5 286//5 285//5 283//5
f 286//5 288//6 287//6 285//5
f 288//6 274//4 273//4 287//6
f 290//4 292//3 291//3 289//4
f 292//3 294//5 293//5 291//3
f 294//5 296//6 295//6 293//5
f 296//6 290//4 289//4 295//6
f 298//3 300//5 299//5 297//3
f 300//5 302//6 301//6 299//5
f 302//6 304//4 303//4 301//6
f 304//4 306//3 305//3 303//4
f 306//3 308//3 307//3 305//3
f 308//3 310//4 309//4 307//3
f 310//4 312//4 311//4 309//4
f 312//4 314//3 313//3 311//4
f 314//3 316//3 315//3 313//3
f 316//3 298//3 297//3 315//3
f 318//6 320//4 319//4 317//6
f 320//4 322//3 321//3 319//4
f 322//3 324//5 323//5 321//3
f 324//5 326//6 325//6 323//5
f 326//6 328//4 327//4 325//6
f 328//4 330//4 329//4 327//4
f 330//4 332//6 331//6 329//4
f 332//6 318//6 317//6 331//6
f 334//4 336//4 335//4 333//4
f 336//4 338//3 337//3 335//4
f 338//3 340//5 339//5 337//3
f 340//5 342//6 341//6 339//5
f 342//6 344//4 343//4 341//6
f 344//4 334//4 333//4 343//4
f 346//6 348//4 347//4 345//6
f 348//4 350//3 349//3 347//4
f 350//3 352//5 351//5 349//3
f 352//5 346//6 345//6 351//5
