# Blender v2.81 (sub 12) OBJ File: 'nothingtext.blend'
# www.blender.org
mtllib that.mtl
o Text.001
v 0.875000 0.625000 0.050000
v 0.875000 0.500000 0.050000
v 0.750000 0.500000 0.050000
v 0.750000 0.000000 0.050000
v 0.625000 0.000000 0.050000
v 0.625000 0.500000 0.050000
v 0.500000 0.500000 0.050000
v 0.500000 0.625000 0.050000
v 0.125000 0.250000 0.050000
v 0.125000 0.000000 0.050000
v 0.000000 0.000000 0.050000
v 0.000000 0.625000 0.050000
v 0.375000 0.625000 0.050000
v 0.375000 0.000000 0.050000
v 0.250000 0.000000 0.050000
v 0.250000 0.250000 0.050000
v 0.250000 0.375000 0.050000
v 0.250000 0.500000 0.050000
v 0.125000 0.500000 0.050000
v 0.125000 0.375000 0.050000
v -0.250000 0.250000 0.050000
v -0.375000 0.250000 0.050000
v -0.375000 0.000000 0.050000
v -0.500000 0.000000 0.050000
v -0.500000 0.623750 0.050000
v -0.375000 0.623750 0.050000
v -0.375000 0.375000 0.050000
v -0.250000 0.375000 0.050000
v -0.250000 0.625000 0.050000
v -0.125000 0.625000 0.050000
v -0.125000 0.000000 0.050000
v -0.250000 0.000000 0.050000
v -0.625000 0.625000 0.050000
v -0.625000 0.500000 0.050000
v -0.750000 0.500000 0.050000
v -0.750000 0.000000 0.050000
v -0.875000 0.000000 0.050000
v -0.875000 0.500000 0.050000
v -1.000000 0.500000 0.050000
v -1.000000 0.625000 0.050000
v 0.875000 0.625000 -0.050000
v 0.875000 0.500000 -0.050000
v 0.750000 0.500000 -0.050000
v 0.750000 -0.000000 -0.050000
v 0.625000 -0.000000 -0.050000
v 0.625000 0.500000 -0.050000
v 0.500000 0.500000 -0.050000
v 0.500000 0.625000 -0.050000
v 0.125000 0.250000 -0.050000
v 0.125000 -0.000000 -0.050000
v 0.000000 -0.000000 -0.050000
v 0.000000 0.625000 -0.050000
v 0.375000 0.625000 -0.050000
v 0.375000 -0.000000 -0.050000
v 0.250000 -0.000000 -0.050000
v 0.250000 0.250000 -0.050000
v 0.250000 0.375000 -0.050000
v 0.250000 0.500000 -0.050000
v 0.125000 0.500000 -0.050000
v 0.125000 0.375000 -0.050000
v -0.250000 0.250000 -0.050000
v -0.375000 0.250000 -0.050000
v -0.375000 -0.000000 -0.050000
v -0.500000 -0.000000 -0.050000
v -0.500000 0.623750 -0.050000
v -0.375000 0.623750 -0.050000
v -0.375000 0.375000 -0.050000
v -0.250000 0.375000 -0.050000
v -0.250000 0.625000 -0.050000
v -0.125000 0.625000 -0.050000
v -0.125000 -0.000000 -0.050000
v -0.250000 -0.000000 -0.050000
v -0.625000 0.625000 -0.050000
v -0.625000 0.500000 -0.050000
v -0.750000 0.500000 -0.050000
v -0.750000 -0.000000 -0.050000
v -0.875000 -0.000000 -0.050000
v -0.875000 0.500000 -0.050000
v -1.000000 0.500000 -0.050000
v -1.000000 0.625000 -0.050000
v -0.625000 0.625000 -0.050000
v -0.625000 0.625000 0.050000
v -0.625000 0.500000 -0.050000
v -0.625000 0.500000 0.050000
v -0.750000 0.500000 -0.050000
v -0.750000 0.500000 0.050000
v -0.750000 -0.000000 -0.050000
v -0.750000 0.000000 0.050000
v -0.875000 -0.000000 -0.050000
v -0.875000 0.000000 0.050000
v -0.875000 0.500000 -0.050000
v -0.875000 0.500000 0.050000
v -1.000000 0.500000 -0.050000
v -1.000000 0.500000 0.050000
v -1.000000 0.625000 -0.050000
v -1.000000 0.625000 0.050000
v -0.250000 0.250000 -0.050000
v -0.250000 0.250000 0.050000
v -0.375000 0.250000 -0.050000
v -0.375000 0.250000 0.050000
v -0.375000 -0.000000 -0.050000
v -0.375000 0.000000 0.050000
v -0.500000 -0.000000 -0.050000
v -0.500000 0.000000 0.050000
v -0.500000 0.623750 -0.050000
v -0.500000 0.623750 0.050000
v -0.375000 0.623750 -0.050000
v -0.375000 0.623750 0.050000
v -0.375000 0.375000 -0.050000
v -0.375000 0.375000 0.050000
v -0.250000 0.375000 -0.050000
v -0.250000 0.375000 0.050000
v -0.250000 0.625000 -0.050000
v -0.250000 0.625000 0.050000
v -0.125000 0.625000 -0.050000
v -0.125000 0.625000 0.050000
v -0.125000 -0.000000 -0.050000
v -0.125000 0.000000 0.050000
v -0.250000 -0.000000 -0.050000
v -0.250000 0.000000 0.050000
v 0.125000 0.250000 -0.050000
v 0.125000 0.250000 0.050000
v 0.125000 -0.000000 -0.050000
v 0.125000 0.000000 0.050000
v 0.000000 -0.000000 -0.050000
v 0.000000 0.000000 0.050000
v 0.000000 0.625000 -0.050000
v 0.000000 0.625000 0.050000
v 0.375000 0.625000 -0.050000
v 0.375000 0.625000 0.050000
v 0.375000 -0.000000 -0.050000
v 0.375000 0.000000 0.050000
v 0.250000 -0.000000 -0.050000
v 0.250000 0.000000 0.050000
v 0.250000 0.250000 -0.050000
v 0.250000 0.250000 0.050000
v 0.250000 0.375000 -0.050000
v 0.250000 0.375000 0.050000
v 0.250000 0.500000 -0.050000
v 0.250000 0.500000 0.050000
v 0.125000 0.500000 -0.050000
v 0.125000 0.500000 0.050000
v 0.125000 0.375000 -0.050000
v 0.125000 0.375000 0.050000
v 0.875000 0.625000 -0.050000
v 0.875000 0.625000 0.050000
v 0.875000 0.500000 -0.050000
v 0.875000 0.500000 0.050000
v 0.750000 0.500000 -0.050000
v 0.750000 0.500000 0.050000
v 0.750000 -0.000000 -0.050000
v 0.750000 0.000000 0.050000
v 0.625000 -0.000000 -0.050000
v 0.625000 0.000000 0.050000
v 0.625000 0.500000 -0.050000
v 0.625000 0.500000 0.050000
v 0.500000 0.500000 -0.050000
v 0.500000 0.500000 0.050000
v 0.500000 0.625000 -0.050000
v 0.500000 0.625000 0.050000
vn 0.0000 0.0000 1.0000
vn 0.0000 -0.0000 -1.0000
vn 0.7071 0.7071 0.0000
vn 0.7071 -0.7071 0.0000
vn -0.7071 -0.7071 0.0000
vn -0.7071 0.7071 0.0000
usemtl Material.001
s off
f 7//1 1//1 8//1
f 7//1 2//1 1//1
f 6//1 2//1 7//1
f 5//1 3//1 6//1
f 3//1 2//1 6//1
f 5//1 4//1 3//1
f 11//1 19//1 12//1
f 19//1 13//1 12//1
f 19//1 18//1 13//1
f 18//1 14//1 13//1
f 11//1 20//1 19//1
f 17//1 14//1 18//1
f 11//1 9//1 20//1
f 9//1 17//1 20//1
f 9//1 16//1 17//1
f 16//1 14//1 17//1
f 11//1 10//1 9//1
f 15//1 14//1 16//1
f 28//1 30//1 29//1
f 28//1 31//1 30//1
f 24//1 26//1 25//1
f 24//1 27//1 26//1
f 24//1 22//1 27//1
f 22//1 28//1 27//1
f 22//1 21//1 28//1
f 21//1 31//1 28//1
f 24//1 23//1 22//1
f 32//1 31//1 21//1
f 39//1 33//1 40//1
f 39//1 34//1 33//1
f 38//1 34//1 39//1
f 37//1 35//1 38//1
f 35//1 34//1 38//1
f 37//1 36//1 35//1
f 41//2 47//2 48//2
f 42//2 47//2 41//2
f 42//1 46//1 47//1
f 43//2 45//2 46//2
f 42//1 43//1 46//1
f 44//2 45//2 43//2
f 59//2 51//2 52//2
f 53//2 59//2 52//2
f 58//2 59//2 53//2
f 54//2 58//2 53//2
f 60//2 51//2 59//2
f 54//2 57//2 58//2
f 49//2 51//2 60//2
f 57//2 49//2 60//2
f 56//2 49//2 57//2
f 54//2 56//2 57//2
f 50//2 51//2 49//2
f 54//2 55//2 56//2
f 70//2 68//2 69//2
f 71//2 68//2 70//2
f 66//2 64//2 65//2
f 67//2 64//2 66//2
f 62//2 64//2 67//2
f 68//2 62//2 67//2
f 61//2 62//2 68//2
f 71//2 61//2 68//2
f 63//2 64//2 62//2
f 71//2 72//2 61//2
f 73//2 79//2 80//2
f 74//2 79//2 73//2
f 74//1 78//1 79//1
f 75//2 77//2 78//2
f 74//1 75//1 78//1
f 76//2 77//2 75//2
s 1
f 82//3 84//4 83//4 81//3
f 84//4 86//4 85//4 83//4
f 86//4 88//4 87//4 85//4
f 88//4 90//5 89//5 87//4
f 90//5 92//5 91//5 89//5
f 92//5 94//5 93//5 91//5
f 94//5 96//6 95//6 93//5
f 96//6 82//3 81//3 95//6
f 98//5 100//4 99//4 97//5
f 100//4 102//4 101//4 99//4
f 102//4 104//5 103//5 101//4
f 104//5 106//6 105//6 103//5
f 106//6 108//3 107//3 105//6
f 108//3 110//3 109//3 107//3
f 110//3 112//6 111//6 109//3
f 112//6 114//6 113//6 111//6
f 114//6 116//3 115//3 113//6
f 116//3 118//4 117//4 115//3
f 118//4 120//5 119//5 117//4
f 120//5 98//5 97//5 119//5
f 122//4 124//4 123//4 121//4
f 124//4 126//5 125//5 123//4
f 126//5 128//6 127//6 125//5
f 128//6 130//3 129//3 127//6
f 130//3 132//4 131//4 129//3
f 132//4 134//5 133//5 131//4
f 134//5 136//5 135//5 133//5
f 136//5 122//4 121//4 135//5
f 138//6 140//5 139//5 137//6
f 140//5 142//4 141//4 139//5
f 142//4 144//3 143//3 141//4
f 144//3 138//6 137//6 143//3
f 146//3 148//4 147//4 145//3
f 148//4 150//4 149//4 147//4
f 150//4 152//4 151//4 149//4
f 152//4 154//5 153//5 151//4
f 154//5 156//5 155//5 153//5
f 156//5 158//5 157//5 155//5
f 158//5 160//6 159//6 157//5
f 160//6 146//3 145//3 159//6
