# Blender v2.81 (sub 12) OBJ File: 'nothingtext.blend'
# www.blender.org
mtllib you.mtl
o Text.001
v 0.500000 0.625000 0.050000
v 0.625000 0.625000 0.050000
v 0.625000 0.000000 0.050000
v 0.250000 0.000000 0.050000
v 0.250000 0.625000 0.050000
v 0.375000 0.625000 0.050000
v 0.375000 0.125000 0.050000
v 0.500000 0.125000 0.050000
v 0.125000 0.625000 0.050000
v 0.125000 0.000000 0.050000
v -0.250000 0.000000 0.050000
v -0.250000 0.625000 0.050000
v 0.000000 0.500000 0.050000
v -0.125000 0.500000 0.050000
v -0.125000 0.125000 0.050000
v 0.000000 0.125000 0.050000
v -0.750000 0.625000 0.050000
v -0.625000 0.625000 0.050000
v -0.625000 0.375000 0.050000
v -0.500000 0.375000 0.050000
v -0.500000 0.625000 0.050000
v -0.375000 0.625000 0.050000
v -0.375000 0.250000 0.050000
v -0.750000 0.250000 0.050000
v -0.373750 0.000000 0.050000
v -0.498750 0.000000 0.050000
v -0.498750 0.250000 0.050000
v -0.373750 0.250000 0.050000
v -0.498750 0.000000 0.050000
v -0.750000 0.000000 0.050000
v -0.750000 0.126250 0.050000
v -0.498750 0.126250 0.050000
v 0.500000 0.625000 -0.050000
v 0.625000 0.625000 -0.050000
v 0.625000 -0.000000 -0.050000
v 0.250000 -0.000000 -0.050000
v 0.250000 0.625000 -0.050000
v 0.375000 0.625000 -0.050000
v 0.375000 0.125000 -0.050000
v 0.500000 0.125000 -0.050000
v 0.125000 0.625000 -0.050000
v 0.125000 -0.000000 -0.050000
v -0.250000 -0.000000 -0.050000
v -0.250000 0.625000 -0.050000
v 0.000000 0.500000 -0.050000
v -0.125000 0.500000 -0.050000
v -0.125000 0.125000 -0.050000
v 0.000000 0.125000 -0.050000
v -0.750000 0.625000 -0.050000
v -0.625000 0.625000 -0.050000
v -0.625000 0.375000 -0.050000
v -0.500000 0.375000 -0.050000
v -0.500000 0.625000 -0.050000
v -0.375000 0.625000 -0.050000
v -0.375000 0.250000 -0.050000
v -0.750000 0.250000 -0.050000
v -0.373750 -0.000000 -0.050000
v -0.498750 -0.000000 -0.050000
v -0.498750 0.250000 -0.050000
v -0.373750 0.250000 -0.050000
v -0.498750 -0.000000 -0.050000
v -0.750000 -0.000000 -0.050000
v -0.750000 0.126250 -0.050000
v -0.498750 0.126250 -0.050000
v -0.373750 -0.000000 -0.050000
v -0.373750 0.000000 0.050000
v -0.498750 -0.000000 -0.050000
v -0.498750 0.000000 0.050000
v -0.498750 0.250000 -0.050000
v -0.498750 0.250000 0.050000
v -0.373750 0.250000 -0.050000
v -0.373750 0.250000 0.050000
v -0.750000 0.625000 -0.050000
v -0.750000 0.625000 0.050000
v -0.625000 0.625000 -0.050000
v -0.625000 0.625000 0.050000
v -0.625000 0.375000 -0.050000
v -0.625000 0.375000 0.050000
v -0.500000 0.375000 -0.050000
v -0.500000 0.375000 0.050000
v -0.500000 0.625000 -0.050000
v -0.500000 0.625000 0.050000
v -0.375000 0.625000 -0.050000
v -0.375000 0.625000 0.050000
v -0.375000 0.250000 -0.050000
v -0.375000 0.250000 0.050000
v -0.750000 0.250000 -0.050000
v -0.750000 0.250000 0.050000
v -0.498750 -0.000000 -0.050000
v -0.498750 0.000000 0.050000
v -0.750000 -0.000000 -0.050000
v -0.750000 0.000000 0.050000
v -0.750000 0.126250 -0.050000
v -0.750000 0.126250 0.050000
v -0.498750 0.126250 -0.050000
v -0.498750 0.126250 0.050000
v 0.125000 0.625000 -0.050000
v 0.125000 0.625000 0.050000
v 0.125000 -0.000000 -0.050000
v 0.125000 0.000000 0.050000
v -0.250000 -0.000000 -0.050000
v -0.250000 0.000000 0.050000
v -0.250000 0.625000 -0.050000
v -0.250000 0.625000 0.050000
v 0.000000 0.500000 -0.050000
v 0.000000 0.500000 0.050000
v -0.125000 0.500000 -0.050000
v -0.125000 0.500000 0.050000
v -0.125000 0.125000 -0.050000
v -0.125000 0.125000 0.050000
v 0.000000 0.125000 -0.050000
v 0.000000 0.125000 0.050000
v 0.500000 0.625000 -0.050000
v 0.500000 0.625000 0.050000
v 0.625000 0.625000 -0.050000
v 0.625000 0.625000 0.050000
v 0.625000 -0.000000 -0.050000
v 0.625000 0.000000 0.050000
v 0.250000 -0.000000 -0.050000
v 0.250000 0.000000 0.050000
v 0.250000 0.625000 -0.050000
v 0.250000 0.625000 0.050000
v 0.375000 0.625000 -0.050000
v 0.375000 0.625000 0.050000
v 0.375000 0.125000 -0.050000
v 0.375000 0.125000 0.050000
v 0.500000 0.125000 -0.050000
v 0.500000 0.125000 0.050000
vn 0.0000 0.0000 1.0000
vn -1.0000 0.0000 0.0000
vn 0.0000 -0.0000 -1.0000
vn 0.7071 -0.7071 0.0000
vn -0.7071 -0.7071 0.0000
vn -0.7071 0.7071 0.0000
vn 0.7071 0.7071 0.0000
usemtl Material.001
s off
f 4//1 6//1 5//1
f 4//1 7//1 6//1
f 8//1 2//1 1//1
f 8//1 3//1 2//1
f 4//1 8//1 7//1
f 4//1 3//1 8//1
f 11//1 14//1 12//1
f 14//1 9//1 12//1
f 14//1 13//1 9//1
f 13//1 10//1 9//1
f 11//1 15//1 14//1
f 16//1 10//1 13//1
f 11//1 16//1 15//1
f 11//1 10//1 16//1
f 26//2 32//2 27//2
f 32//1 28//1 27//1
f 32//1 25//1 28//1
f 30//1 32//1 31//1
f 30//1 29//1 32//1
f 26//1 25//1 32//1
f 24//1 18//1 17//1
f 24//1 19//1 18//1
f 20//1 22//1 21//1
f 20//1 23//1 22//1
f 24//1 20//1 19//1
f 24//1 23//1 20//1
f 38//3 36//3 37//3
f 39//3 36//3 38//3
f 34//3 40//3 33//3
f 35//3 40//3 34//3
f 40//3 36//3 39//3
f 35//3 36//3 40//3
f 46//3 43//3 44//3
f 41//3 46//3 44//3
f 45//3 46//3 41//3
f 42//3 45//3 41//3
f 47//3 43//3 46//3
f 42//3 48//3 45//3
f 48//3 43//3 47//3
f 42//3 43//3 48//3
f 64//1 58//1 59//1
f 60//3 64//3 59//3
f 57//3 64//3 60//3
f 64//3 62//3 63//3
f 61//3 62//3 64//3
f 57//3 58//3 64//3
f 50//3 56//3 49//3
f 51//3 56//3 50//3
f 54//3 52//3 53//3
f 55//3 52//3 54//3
f 52//3 56//3 51//3
f 55//3 56//3 52//3
s 1
f 66//4 68//5 67//5 65//4
f 68//5 70//6 69//6 67//5
f 70//6 72//7 71//7 69//6
f 72//7 66//4 65//4 71//7
f 74//6 76//7 75//7 73//6
f 76//7 78//7 77//7 75//7
f 78//7 80//6 79//6 77//7
f 80//6 82//6 81//6 79//6
f 82//6 84//7 83//7 81//6
f 84//7 86//4 85//4 83//7
f 86//4 88//5 87//5 85//4
f 88//5 74//6 73//6 87//5
f 90//4 92//5 91//5 89//4
f 92//5 94//6 93//6 91//5
f 94//6 96//7 95//7 93//6
f 96//7 90//4 89//4 95//7
f 98//7 100//4 99//4 97//7
f 100//4 102//5 101//5 99//4
f 102//5 104//6 103//6 101//5
f 104//6 98//7 97//7 103//6
f 106//5 108//4 107//4 105//5
f 108//4 110//7 109//7 107//4
f 110//7 112//6 111//6 109//7
f 112//6 106//5 105//5 111//6
f 114//6 116//7 115//7 113//6
f 116//7 118//4 117//4 115//7
f 118//4 120//5 119//5 117//4
f 120//5 122//6 121//6 119//5
f 122//6 124//7 123//7 121//6
f 124//7 126//7 125//7 123//7
f 126//7 128//6 127//6 125//7
f 128//6 114//6 113//6 127//6
